# Blender 4.1.1
# www.blender.org
mtllib flachabyme2.mtl
o flacha
v 0.000000 0.027140 -0.377556
v 0.266973 0.027140 -0.266973
v 0.377556 0.027140 0.000000
v 0.266973 0.027140 0.266973
v 0.000000 0.027140 0.377556
v -0.266973 0.027140 0.266973
v -0.377556 0.027140 0.000000
v -0.266973 0.027140 -0.266973
v -0.000000 0.166096 -0.694694
v -0.000000 0.452540 -0.889233
v -0.000000 0.832594 -0.861136
v -0.000000 1.148972 -0.597397
v -0.000000 1.285661 -0.188778
v 0.133486 1.285661 -0.133486
v 0.422423 1.148972 -0.422423
v 0.608915 0.832594 -0.608915
v 0.628782 0.452540 -0.628782
v 0.491223 0.166096 -0.491223
v 0.188778 1.285661 0.000000
v 0.597397 1.148972 0.000000
v 0.861136 0.832594 0.000000
v 0.889233 0.452540 0.000000
v 0.694694 0.166096 0.000000
v 0.133486 1.285661 0.133486
v 0.422423 1.148972 0.422423
v 0.608915 0.832594 0.608915
v 0.628782 0.452540 0.628782
v 0.491223 0.166096 0.491223
v -0.000000 1.285661 0.188778
v -0.000000 1.148972 0.597397
v -0.000000 0.832594 0.861136
v -0.000000 0.452540 0.889233
v -0.000000 0.166096 0.694694
v -0.133486 1.285661 0.133486
v -0.422423 1.148972 0.422423
v -0.608915 0.832594 0.608915
v -0.628782 0.452540 0.628782
v -0.491223 0.166096 0.491223
v -0.188778 1.285661 0.000000
v -0.597397 1.148972 0.000000
v -0.861136 0.832594 0.000000
v -0.889233 0.452540 0.000000
v -0.694694 0.166096 0.000000
v -0.133486 1.285661 -0.133486
v -0.422423 1.148972 -0.422423
v -0.608915 0.832594 -0.608915
v -0.628782 0.452540 -0.628782
v -0.491223 0.166096 -0.491223
v -0.000000 1.537365 -0.188778
v 0.133486 1.537365 -0.133486
v 0.188778 1.537365 0.000000
v 0.133486 1.537365 0.133486
v -0.000000 1.537365 0.188778
v -0.133486 1.537365 0.133486
v -0.188778 1.537365 0.000000
v -0.133486 1.537365 -0.133486
v -0.000000 1.914921 -0.188778
v 0.133486 1.914921 -0.133486
v 0.188778 1.914921 0.000000
v 0.133486 1.914921 0.133486
v -0.000000 1.914921 0.188778
v -0.133486 1.914921 0.133486
v -0.188778 1.914921 0.000000
v -0.133486 1.914921 -0.133486
v -0.215866 1.618210 0.000000
v -0.318630 1.726143 0.000000
v -0.215866 1.834076 0.000000
v -0.152640 1.834076 -0.152640
v -0.225305 1.726143 -0.225305
v -0.152640 1.618210 -0.152640
v 0.152640 1.618210 -0.152640
v 0.225305 1.726143 -0.225305
v 0.152640 1.834076 -0.152640
v 0.215866 1.834076 0.000000
v 0.318630 1.726143 0.000000
v 0.215866 1.618210 0.000000
v 0.152640 1.618210 0.152640
v 0.225305 1.726143 0.225305
v 0.152640 1.834076 0.152640
v -0.000000 1.834076 0.215866
v -0.000000 1.726143 0.318630
v -0.000000 1.618210 0.215866
v -0.152640 1.618210 0.152640
v -0.225305 1.726143 0.225305
v -0.152640 1.834076 0.152640
v -0.000000 1.834076 -0.215866
v -0.000000 1.726143 -0.318630
v -0.000000 1.618210 -0.215866
v -0.000000 0.809689 -0.628988
v -0.000000 1.034405 -0.439078
v -0.000000 1.152192 -0.103110
v 0.072910 1.152192 -0.072910
v 0.310475 1.034405 -0.310475
v 0.444762 0.809689 -0.444762
v 0.103110 1.152192 0.000000
v 0.439078 1.034405 0.000000
v 0.628988 0.809689 0.000000
v 0.072910 1.152192 0.072910
v 0.310475 1.034405 0.310475
v 0.444762 0.809689 0.444762
v -0.000000 1.152192 0.103110
v -0.000000 1.034405 0.439078
v -0.000000 0.809689 0.628988
v -0.072910 1.152192 0.072910
v -0.310475 1.034405 0.310475
v -0.444762 0.809689 0.444762
v -0.103110 1.152192 0.000000
v -0.439078 1.034405 0.000000
v -0.628988 0.809689 0.000000
v -0.072910 1.152192 -0.072910
v -0.310475 1.034405 -0.310475
v -0.444762 0.809689 -0.444762
v -0.000000 1.901873 -0.090338
v 0.063879 1.901873 -0.063879
v 0.090338 1.901873 0.000000
v 0.063879 1.901873 0.063879
v -0.000000 1.901873 0.090338
v -0.063879 1.901873 0.063879
v -0.090338 1.901873 0.000000
v -0.063879 1.901873 -0.063879
vn -0.0000 -1.0000 -0.0000
vn -0.1640 -0.9035 -0.3959
vn -0.3242 -0.5315 -0.7826
vn -0.3818 0.0681 -0.9217
vn -0.3032 0.6102 -0.7320
vn -0.1303 0.9403 -0.3145
vn -0.3959 -0.9035 -0.1640
vn -0.7826 -0.5315 -0.3242
vn -0.9217 0.0681 -0.3818
vn -0.7320 0.6102 -0.3032
vn -0.3145 0.9403 -0.1303
vn -0.3959 -0.9035 0.1640
vn -0.7826 -0.5315 0.3242
vn -0.9217 0.0681 0.3818
vn -0.7320 0.6102 0.3032
vn -0.3145 0.9403 0.1303
vn -0.1640 -0.9035 0.3959
vn -0.3242 -0.5315 0.7826
vn -0.3818 0.0681 0.9217
vn -0.3032 0.6102 0.7320
vn -0.1303 0.9403 0.3145
vn 0.1640 -0.9035 0.3959
vn 0.3242 -0.5315 0.7826
vn 0.3818 0.0681 0.9217
vn 0.3032 0.6102 0.7320
vn 0.1303 0.9403 0.3145
vn 0.3959 -0.9035 0.1640
vn 0.7826 -0.5315 0.3242
vn 0.9217 0.0681 0.3818
vn 0.7320 0.6102 0.3032
vn 0.3145 0.9403 0.1303
vn 0.3959 -0.9035 -0.1640
vn 0.7826 -0.5315 -0.3242
vn 0.9217 0.0681 -0.3818
vn 0.7320 0.6102 -0.3032
vn 0.3145 0.9403 -0.1303
vn 0.1640 -0.9035 -0.3959
vn 0.3242 -0.5315 -0.7826
vn 0.3818 0.0681 -0.9217
vn 0.3032 0.6102 -0.7320
vn 0.1303 0.9403 -0.3145
vn 0.9239 -0.0000 0.3827
vn -0.9239 -0.0000 0.3827
vn 0.9239 -0.0000 -0.3827
vn -0.3827 -0.0000 0.9239
vn 0.3827 -0.0000 -0.9239
vn -0.3827 -0.0000 -0.9239
vn 0.3827 -0.0000 0.9239
vn -0.9239 -0.0000 -0.3827
vn -0.8826 0.2957 -0.3656
vn 0.8826 0.2957 -0.3656
vn 0.3656 0.2957 0.8826
vn -0.8826 0.2957 0.3656
vn -0.3656 0.2957 -0.8826
vn 0.3656 0.2957 -0.8826
vn 0.8826 0.2957 0.3656
vn -0.3656 0.2957 0.8826
vn -0.3656 -0.2957 0.8826
vn -0.2873 -0.6605 0.6937
vn -0.2873 0.6605 0.6937
vn 0.8826 -0.2957 0.3656
vn 0.6937 -0.6605 0.2873
vn 0.6937 0.6605 0.2873
vn 0.3656 -0.2957 -0.8826
vn 0.2873 -0.6605 -0.6937
vn 0.2873 0.6605 -0.6937
vn -0.3656 -0.2957 -0.8826
vn -0.2873 -0.6605 -0.6937
vn -0.2873 0.6605 -0.6937
vn -0.8826 -0.2957 0.3656
vn -0.6937 -0.6605 0.2873
vn -0.6937 0.6605 0.2873
vn 0.3656 -0.2957 0.8826
vn 0.2873 -0.6605 0.6937
vn 0.2873 0.6605 0.6937
vn 0.8826 -0.2957 -0.3656
vn 0.6937 -0.6605 -0.2873
vn 0.6937 0.6605 -0.2873
vn -0.8826 -0.2957 -0.3656
vn -0.6937 -0.6605 -0.2873
vn -0.6937 0.6605 -0.2873
vn 0.3016 -0.6154 0.7282
vn 0.1358 -0.9349 0.3278
vn 0.7282 -0.6154 0.3016
vn 0.3278 -0.9349 0.1358
vn 0.7282 -0.6154 -0.3016
vn 0.3278 -0.9349 -0.1358
vn 0.3016 -0.6154 -0.7282
vn 0.1358 -0.9349 -0.3278
vn -0.3016 -0.6154 -0.7282
vn -0.1358 -0.9349 -0.3278
vn -0.7282 -0.6154 -0.3016
vn -0.3278 -0.9349 -0.1358
vn -0.7282 -0.6154 0.3016
vn -0.3278 -0.9349 0.1358
vn -0.3016 -0.6154 0.7282
vn -0.1358 -0.9349 0.3278
vn 0.0543 0.9899 0.1312
vn 0.1312 0.9899 0.0543
vn 0.1312 0.9899 -0.0543
vn 0.0543 0.9899 -0.1312
vn -0.0543 0.9899 -0.1312
vn -0.1312 0.9899 -0.0543
vn -0.1312 0.9899 0.0543
vn -0.0543 0.9899 0.1312
vn -0.3826 -0.0157 -0.9238
vn 0.3826 -0.0157 -0.9238
vn 0.9238 -0.0157 -0.3826
vn 0.9238 -0.0157 0.3826
vn 0.3826 -0.0157 0.9238
vn -0.3826 -0.0157 0.9238
vn -0.9238 -0.0157 0.3826
vn -0.9238 -0.0157 -0.3826
vt 0.750000 0.490000
vt 0.919706 0.419706
vt 0.990000 0.250000
vt 0.919706 0.080294
vt 0.750000 0.010000
vt 0.580294 0.080294
vt 0.510000 0.250000
vt 0.580294 0.419706
vt 0.125000 0.500000
vt 0.125000 0.550000
vt 0.000000 0.550000
vt 0.000000 0.500000
vt 0.125000 0.600000
vt 0.000000 0.600000
vt 0.125000 0.650000
vt 0.000000 0.650000
vt 0.125000 0.700000
vt 0.000000 0.700000
vt 0.125000 0.750000
vt 0.000000 0.750000
vt 0.250000 0.500000
vt 0.250000 0.550000
vt 0.250000 0.600000
vt 0.250000 0.650000
vt 0.250000 0.700000
vt 0.250000 0.750000
vt 0.375000 0.500000
vt 0.375000 0.550000
vt 0.375000 0.600000
vt 0.375000 0.650000
vt 0.375000 0.700000
vt 0.375000 0.750000
vt 0.500000 0.500000
vt 0.500000 0.550000
vt 0.500000 0.600000
vt 0.500000 0.650000
vt 0.500000 0.700000
vt 0.500000 0.750000
vt 0.625000 0.500000
vt 0.625000 0.550000
vt 0.625000 0.600000
vt 0.625000 0.650000
vt 0.625000 0.700000
vt 0.625000 0.750000
vt 0.750000 0.500000
vt 0.750000 0.550000
vt 0.750000 0.600000
vt 0.750000 0.650000
vt 0.750000 0.700000
vt 0.750000 0.750000
vt 0.875000 0.500000
vt 0.875000 0.550000
vt 0.875000 0.600000
vt 0.875000 0.650000
vt 0.875000 0.700000
vt 0.875000 0.750000
vt 1.000000 0.500000
vt 1.000000 0.550000
vt 1.000000 0.600000
vt 1.000000 0.650000
vt 1.000000 0.700000
vt 1.000000 0.750000
vt 1.000000 0.750000
vt 0.000000 0.750000
s 0
usemtl glass
f 1/1/1 2/2/1 3/3/1 4/4/1 5/5/1 6/6/1 7/7/1 8/8/1
f 8/9/2 48/10/2 9/11/2 1/12/2
f 48/10/3 47/13/3 10/14/3 9/11/3
f 47/13/4 46/15/4 11/16/4 10/14/4
f 46/15/5 45/17/5 12/18/5 11/16/5
f 45/17/6 44/19/6 13/20/6 12/18/6
f 7/21/7 43/22/7 48/10/7 8/9/7
f 43/22/8 42/23/8 47/13/8 48/10/8
f 42/23/9 41/24/9 46/15/9 47/13/9
f 41/24/10 40/25/10 45/17/10 46/15/10
f 40/25/11 39/26/11 44/19/11 45/17/11
f 6/27/12 38/28/12 43/22/12 7/21/12
f 38/28/13 37/29/13 42/23/13 43/22/13
f 37/29/14 36/30/14 41/24/14 42/23/14
f 36/30/15 35/31/15 40/25/15 41/24/15
f 35/31/16 34/32/16 39/26/16 40/25/16
f 5/33/17 33/34/17 38/28/17 6/27/17
f 33/34/18 32/35/18 37/29/18 38/28/18
f 32/35/19 31/36/19 36/30/19 37/29/19
f 31/36/20 30/37/20 35/31/20 36/30/20
f 30/37/21 29/38/21 34/32/21 35/31/21
f 4/39/22 28/40/22 33/34/22 5/33/22
f 28/40/23 27/41/23 32/35/23 33/34/23
f 27/41/24 26/42/24 31/36/24 32/35/24
f 26/42/25 25/43/25 30/37/25 31/36/25
f 25/43/26 24/44/26 29/38/26 30/37/26
f 3/45/27 23/46/27 28/40/27 4/39/27
f 23/46/28 22/47/28 27/41/28 28/40/28
f 22/47/29 21/48/29 26/42/29 27/41/29
f 21/48/30 20/49/30 25/43/30 26/42/30
f 20/49/31 19/50/31 24/44/31 25/43/31
f 2/51/32 18/52/32 23/46/32 3/45/32
f 18/52/33 17/53/33 22/47/33 23/46/33
f 17/53/34 16/54/34 21/48/34 22/47/34
f 16/54/35 15/55/35 20/49/35 21/48/35
f 15/55/36 14/56/36 19/50/36 20/49/36
f 1/57/37 9/58/37 18/52/37 2/51/37
f 9/58/38 10/59/38 17/53/38 18/52/38
f 10/59/39 11/60/39 16/54/39 17/53/39
f 11/60/40 12/61/40 15/55/40 16/54/40
f 12/61/41 13/62/41 14/56/41 15/55/41
f 24/44/42 19/50/42 51/50/42 52/44/42
f 39/26/43 34/32/43 54/32/43 55/26/43
f 19/50/44 14/56/44 50/56/44 51/50/44
f 34/32/45 29/38/45 53/38/45 54/32/45
f 14/56/46 13/62/46 49/62/46 50/56/46
f 13/20/47 44/19/47 56/19/47 49/20/47
f 29/38/48 24/44/48 52/44/48 53/38/48
f 44/19/49 39/26/49 55/26/49 56/19/49
f 68/19/50 67/26/50 63/26/50 64/19/50
f 74/50/51 73/56/51 58/56/51 59/50/51
f 80/38/52 79/44/52 60/44/52 61/38/52
f 67/26/53 85/32/53 62/32/53 63/26/53
f 86/20/54 68/19/54 64/19/54 57/20/54
f 73/56/55 86/62/55 57/62/55 58/56/55
f 79/44/56 74/50/56 59/50/56 60/44/56
f 85/32/57 80/38/57 61/38/57 62/32/57
f 54/32/58 53/38/58 82/38/58 83/32/58
f 83/32/59 82/38/59 81/38/59 84/32/59
f 84/32/60 81/38/60 80/38/60 85/32/60
f 52/44/61 51/50/61 76/50/61 77/44/61
f 77/44/62 76/50/62 75/50/62 78/44/62
f 78/44/63 75/50/63 74/50/63 79/44/63
f 50/56/64 49/62/64 88/63/64 71/56/64
f 71/56/65 88/63/65 87/63/65 72/56/65
f 72/56/66 87/63/66 86/62/66 73/56/66
f 49/20/67 56/19/67 70/19/67 88/64/67
f 88/64/68 70/19/68 69/19/68 87/64/68
f 87/64/69 69/19/69 68/19/69 86/20/69
f 55/26/70 54/32/70 83/32/70 65/26/70
f 65/26/71 83/32/71 84/32/71 66/26/71
f 66/26/72 84/32/72 85/32/72 67/26/72
f 53/38/73 52/44/73 77/44/73 82/38/73
f 82/38/74 77/44/74 78/44/74 81/38/74
f 81/38/75 78/44/75 79/44/75 80/38/75
f 51/50/76 50/56/76 71/56/76 76/50/76
f 76/50/77 71/56/77 72/56/77 75/50/77
f 75/50/78 72/56/78 73/56/78 74/50/78
f 56/19/79 55/26/79 65/26/79 70/19/79
f 70/19/80 65/26/80 66/26/80 69/19/80
f 69/19/81 66/26/81 67/26/81 68/19/81
f 112/15/82 89/16/82 90/18/82 111/17/82
f 111/17/83 90/18/83 91/20/83 110/19/83
f 109/24/84 112/15/84 111/17/84 108/25/84
f 108/25/85 111/17/85 110/19/85 107/26/85
f 106/30/86 109/24/86 108/25/86 105/31/86
f 105/31/87 108/25/87 107/26/87 104/32/87
f 103/36/88 106/30/88 105/31/88 102/37/88
f 102/37/89 105/31/89 104/32/89 101/38/89
f 100/42/90 103/36/90 102/37/90 99/43/90
f 99/43/91 102/37/91 101/38/91 98/44/91
f 97/48/92 100/42/92 99/43/92 96/49/92
f 96/49/93 99/43/93 98/44/93 95/50/93
f 94/54/94 97/48/94 96/49/94 93/55/94
f 93/55/95 96/49/95 95/50/95 92/56/95
f 89/60/96 94/54/96 93/55/96 90/61/96
f 90/61/97 93/55/97 92/56/97 91/62/97
f 57/20/98 64/19/98 120/19/98 113/20/98
f 64/19/99 63/26/99 119/26/99 120/19/99
f 63/26/100 62/32/100 118/32/100 119/26/100
f 62/32/101 61/38/101 117/38/101 118/32/101
f 61/38/102 60/44/102 116/44/102 117/38/102
f 60/44/103 59/50/103 115/50/103 116/44/103
f 59/50/104 58/56/104 114/56/104 115/50/104
f 58/56/105 57/62/105 113/62/105 114/56/105
f 101/38/106 117/38/106 116/44/106 98/44/106
f 104/32/107 118/32/107 117/38/107 101/38/107
f 107/26/108 119/26/108 118/32/108 104/32/108
f 110/19/109 120/19/109 119/26/109 107/26/109
f 91/20/110 113/20/110 120/19/110 110/19/110
f 92/56/111 114/56/111 113/62/111 91/20/111
f 95/50/112 115/50/112 114/56/112 92/56/112
f 98/44/113 116/44/113 115/50/113 95/50/113
o cap
v 0.000000 1.781285 -0.120000
v 0.000000 2.021285 -0.137266
v 0.084853 1.781285 -0.084853
v 0.097062 2.021285 -0.097062
v 0.120000 1.781285 0.000000
v 0.137266 2.021285 0.000000
v 0.084853 1.781285 0.084853
v 0.097062 2.021285 0.097062
v 0.000000 1.781285 0.120000
v 0.000000 2.021285 0.137266
v -0.084853 1.781285 0.084853
v -0.097062 2.021285 0.097062
v -0.120000 1.781285 0.000000
v -0.137266 2.021285 0.000000
v -0.084853 1.781285 -0.084853
v -0.097062 2.021285 -0.097062
vn 0.3818 -0.0663 -0.9218
vn 0.9218 -0.0663 -0.3818
vn 0.9218 -0.0663 0.3818
vn 0.3818 -0.0663 0.9218
vn -0.3818 -0.0663 0.9218
vn -0.9218 -0.0663 0.3818
vn -0.0000 1.0000 -0.0000
vn -0.9218 -0.0663 -0.3818
vn -0.3818 -0.0663 -0.9218
vn -0.0000 -1.0000 -0.0000
vt 1.000000 0.500000
vt 1.000000 1.000000
vt 0.875000 1.000000
vt 0.875000 0.500000
vt 0.750000 1.000000
vt 0.750000 0.500000
vt 0.625000 1.000000
vt 0.625000 0.500000
vt 0.500000 1.000000
vt 0.500000 0.500000
vt 0.375000 1.000000
vt 0.375000 0.500000
vt 0.250000 1.000000
vt 0.250000 0.500000
vt 0.419706 0.419706
vt 0.250000 0.490000
vt 0.080294 0.419706
vt 0.010000 0.250000
vt 0.080294 0.080294
vt 0.250000 0.010000
vt 0.419706 0.080294
vt 0.490000 0.250000
vt 0.125000 1.000000
vt 0.125000 0.500000
vt 0.000000 1.000000
vt 0.000000 0.500000
vt 0.750000 0.490000
vt 0.919706 0.419706
vt 0.990000 0.250000
vt 0.919706 0.080294
vt 0.750000 0.010000
vt 0.580294 0.080294
vt 0.510000 0.250000
vt 0.580294 0.419706
s 0
usemtl cap
f 121/65/114 122/66/114 124/67/114 123/68/114
f 123/68/115 124/67/115 126/69/115 125/70/115
f 125/70/116 126/69/116 128/71/116 127/72/116
f 127/72/117 128/71/117 130/73/117 129/74/117
f 129/74/118 130/73/118 132/75/118 131/76/118
f 131/76/119 132/75/119 134/77/119 133/78/119
f 124/79/120 122/80/120 136/81/120 134/82/120 132/83/120 130/84/120 128/85/120 126/86/120
f 133/78/121 134/77/121 136/87/121 135/88/121
f 135/88/122 136/87/122 122/89/122 121/90/122
f 121/91/123 123/92/123 125/93/123 127/94/123 129/95/123 131/96/123 133/97/123 135/98/123
o liquid
v -0.000000 0.226129 -0.285857
v 0.202131 0.226129 -0.202131
v 0.285857 0.226129 0.000000
v 0.202131 0.226129 0.202131
v 0.000000 0.226129 0.285857
v -0.202131 0.226129 0.202131
v -0.285857 0.226129 0.000000
v -0.202131 0.226129 -0.202131
v -0.000000 0.346107 -0.512462
v -0.000000 0.543512 -0.649263
v -0.000000 0.809689 -0.628988
v 0.444762 0.809689 -0.444762
v 0.459098 0.543512 -0.459098
v 0.362366 0.346107 -0.362366
v 0.628988 0.809689 0.000000
v 0.649263 0.543512 -0.000000
v 0.512462 0.346107 0.000000
v 0.444762 0.809689 0.444762
v 0.459098 0.543512 0.459098
v 0.362366 0.346107 0.362366
v -0.000000 0.809689 0.628988
v -0.000000 0.543512 0.649263
v 0.000000 0.346107 0.512462
v -0.444762 0.809689 0.444762
v -0.459098 0.543512 0.459098
v -0.362366 0.346107 0.362366
v -0.628988 0.809689 0.000000
v -0.649263 0.543512 0.000000
v -0.512462 0.346107 0.000000
v -0.444762 0.809689 -0.444762
v -0.459098 0.543512 -0.459098
v -0.362366 0.346107 -0.362366
vn -0.0000 -1.0000 -0.0000
vn -0.1903 -0.8676 -0.4594
vn -0.3223 -0.5392 -0.7781
vn -0.3817 0.0702 -0.9216
vn -0.4594 -0.8676 -0.1903
vn -0.7781 -0.5392 -0.3223
vn -0.9216 0.0702 -0.3817
vn -0.4594 -0.8676 0.1903
vn -0.7781 -0.5392 0.3223
vn -0.9216 0.0702 0.3817
vn -0.1903 -0.8676 0.4594
vn -0.3223 -0.5392 0.7781
vn -0.3817 0.0702 0.9216
vn 0.1903 -0.8676 0.4594
vn 0.3223 -0.5392 0.7781
vn 0.3817 0.0702 0.9216
vn 0.4594 -0.8676 0.1903
vn 0.7781 -0.5392 0.3223
vn 0.9216 0.0702 0.3817
vn 0.4594 -0.8676 -0.1903
vn 0.7781 -0.5392 -0.3223
vn 0.9216 0.0702 -0.3817
vn 0.1903 -0.8676 -0.4594
vn 0.3223 -0.5392 -0.7781
vn 0.3817 0.0702 -0.9216
vn -0.0000 1.0000 -0.0000
vt 0.750000 0.490000
vt 0.919706 0.419706
vt 0.990000 0.250000
vt 0.919706 0.080294
vt 0.750000 0.010000
vt 0.580294 0.080294
vt 0.510000 0.250000
vt 0.580294 0.419706
vt 0.125000 0.500000
vt 0.125000 0.550000
vt 0.000000 0.550000
vt 0.000000 0.500000
vt 0.125000 0.600000
vt 0.000000 0.600000
vt 0.125000 0.650000
vt 0.000000 0.650000
vt 0.250000 0.500000
vt 0.250000 0.550000
vt 0.250000 0.600000
vt 0.250000 0.650000
vt 0.375000 0.500000
vt 0.375000 0.550000
vt 0.375000 0.600000
vt 0.375000 0.650000
vt 0.500000 0.500000
vt 0.500000 0.550000
vt 0.500000 0.600000
vt 0.500000 0.650000
vt 0.625000 0.500000
vt 0.625000 0.550000
vt 0.625000 0.600000
vt 0.625000 0.650000
vt 0.750000 0.500000
vt 0.750000 0.550000
vt 0.750000 0.600000
vt 0.750000 0.650000
vt 0.875000 0.500000
vt 0.875000 0.550000
vt 0.875000 0.600000
vt 0.875000 0.650000
vt 1.000000 0.500000
vt 1.000000 0.550000
vt 1.000000 0.600000
vt 1.000000 0.650000
s 0
usemtl liquid
f 137/99/124 138/100/124 139/101/124 140/102/124 141/103/124 142/104/124 143/105/124 144/106/124
f 144/107/125 168/108/125 145/109/125 137/110/125
f 168/108/126 167/111/126 146/112/126 145/109/126
f 167/111/127 166/113/127 147/114/127 146/112/127
f 143/115/128 165/116/128 168/108/128 144/107/128
f 165/116/129 164/117/129 167/111/129 168/108/129
f 164/117/130 163/118/130 166/113/130 167/111/130
f 142/119/131 162/120/131 165/116/131 143/115/131
f 162/120/132 161/121/132 164/117/132 165/116/132
f 161/121/133 160/122/133 163/118/133 164/117/133
f 141/123/134 159/124/134 162/120/134 142/119/134
f 159/124/135 158/125/135 161/121/135 162/120/135
f 158/125/136 157/126/136 160/122/136 161/121/136
f 140/127/137 156/128/137 159/124/137 141/123/137
f 156/128/138 155/129/138 158/125/138 159/124/138
f 155/129/139 154/130/139 157/126/139 158/125/139
f 139/131/140 153/132/140 156/128/140 140/127/140
f 153/132/141 152/133/141 155/129/141 156/128/141
f 152/133/142 151/134/142 154/130/142 155/129/142
f 138/135/143 150/136/143 153/132/143 139/131/143
f 150/136/144 149/137/144 152/133/144 153/132/144
f 149/137/145 148/138/145 151/134/145 152/133/145
f 137/139/146 145/140/146 150/136/146 138/135/146
f 145/140/147 146/141/147 149/137/147 150/136/147
f 146/141/148 147/142/148 148/138/148 149/137/148
f 166/113/149 163/118/149 160/122/149 157/126/149 154/130/149 151/134/149 148/138/149 147/142/149
