# Blender 4.1.1
# www.blender.org
mtllib flachabyme.mtl
o flacha
v 0.000000 0.027140 -0.377556
v 0.266973 0.027140 -0.266973
v 0.377556 0.027140 0.000000
v 0.266973 0.027140 0.266973
v 0.000000 0.027140 0.377556
v -0.266973 0.027140 0.266973
v -0.377556 0.027140 0.000000
v -0.266973 0.027140 -0.266973
v -0.000000 0.166096 -0.694694
v -0.000000 0.452540 -0.889233
v -0.000000 0.832594 -0.861136
v -0.000000 1.148972 -0.597397
v -0.000000 1.285661 -0.188778
v 0.133486 1.285661 -0.133486
v 0.422423 1.148972 -0.422423
v 0.608915 0.832594 -0.608915
v 0.628782 0.452540 -0.628782
v 0.491223 0.166096 -0.491223
v 0.188778 1.285661 0.000000
v 0.597397 1.148972 0.000000
v 0.861136 0.832594 0.000000
v 0.889233 0.452540 0.000000
v 0.694694 0.166096 0.000000
v 0.133486 1.285661 0.133486
v 0.422423 1.148972 0.422423
v 0.608915 0.832594 0.608915
v 0.628782 0.452540 0.628782
v 0.491223 0.166096 0.491223
v -0.000000 1.285661 0.188778
v -0.000000 1.148972 0.597397
v -0.000000 0.832594 0.861136
v -0.000000 0.452540 0.889233
v -0.000000 0.166096 0.694694
v -0.133486 1.285661 0.133486
v -0.422423 1.148972 0.422423
v -0.608915 0.832594 0.608915
v -0.628782 0.452540 0.628782
v -0.491223 0.166096 0.491223
v -0.188778 1.285661 0.000000
v -0.597397 1.148972 0.000000
v -0.861136 0.832594 0.000000
v -0.889233 0.452540 0.000000
v -0.694694 0.166096 0.000000
v -0.133486 1.285661 -0.133486
v -0.422423 1.148972 -0.422423
v -0.608915 0.832594 -0.608915
v -0.628782 0.452540 -0.628782
v -0.491223 0.166096 -0.491223
v -0.000000 1.537365 -0.188778
v 0.133486 1.537365 -0.133486
v 0.188778 1.537365 0.000000
v 0.133486 1.537365 0.133486
v -0.000000 1.537365 0.188778
v -0.133486 1.537365 0.133486
v -0.188778 1.537365 0.000000
v -0.133486 1.537365 -0.133486
v -0.000000 1.914921 -0.188778
v 0.133486 1.914921 -0.133486
v 0.188778 1.914921 0.000000
v 0.133486 1.914921 0.133486
v -0.000000 1.914921 0.188778
v -0.133486 1.914921 0.133486
v -0.188778 1.914921 0.000000
v -0.133486 1.914921 -0.133486
v -0.215866 1.618210 0.000000
v -0.318630 1.726143 0.000000
v -0.215866 1.834076 0.000000
v -0.152640 1.834076 -0.152640
v -0.225305 1.726143 -0.225305
v -0.152640 1.618210 -0.152640
v 0.152640 1.618210 -0.152640
v 0.225305 1.726143 -0.225305
v 0.152640 1.834076 -0.152640
v 0.215866 1.834076 0.000000
v 0.318630 1.726143 0.000000
v 0.215866 1.618210 0.000000
v 0.152640 1.618210 0.152640
v 0.225305 1.726143 0.225305
v 0.152640 1.834076 0.152640
v -0.000000 1.834076 0.215866
v -0.000000 1.726143 0.318630
v -0.000000 1.618210 0.215866
v -0.152640 1.618210 0.152640
v -0.225305 1.726143 0.225305
v -0.152640 1.834076 0.152640
v -0.000000 1.834076 -0.215866
v -0.000000 1.726143 -0.318630
v -0.000000 1.618210 -0.215866
v -0.000000 0.104539 -0.357321
v 0.252664 0.104539 -0.252664
v 0.357321 0.104539 0.000000
v 0.252664 0.104539 0.252664
v 0.000000 0.104539 0.357321
v -0.252664 0.104539 0.252664
v -0.357321 0.104539 0.000000
v -0.252664 0.104539 -0.252664
v -0.000000 0.225015 -0.640578
v 0.000000 0.471772 -0.811579
v -0.000000 0.804492 -0.786235
v -0.000000 1.085388 -0.548848
v -0.000000 1.232622 -0.128888
v 0.091137 1.232622 -0.091137
v 0.388094 1.085388 -0.388094
v 0.555952 0.804492 -0.555952
v 0.573873 0.471772 -0.573873
v 0.452957 0.225015 -0.452957
v 0.128888 1.232622 0.000000
v 0.548848 1.085388 -0.000000
v 0.786235 0.804492 -0.000000
v 0.811579 0.471772 -0.000000
v 0.640578 0.225015 0.000000
v 0.091137 1.232622 0.091137
v 0.388094 1.085388 0.388094
v 0.555952 0.804492 0.555952
v 0.573873 0.471772 0.573873
v 0.452957 0.225015 0.452957
v -0.000000 1.232622 0.128888
v -0.000000 1.085388 0.548848
v -0.000000 0.804492 0.786235
v -0.000000 0.471772 0.811579
v 0.000000 0.225015 0.640578
v -0.091137 1.232622 0.091137
v -0.388094 1.085388 0.388094
v -0.555952 0.804492 0.555952
v -0.573873 0.471772 0.573873
v -0.452957 0.225015 0.452957
v -0.128888 1.232622 0.000000
v -0.548848 1.085388 -0.000000
v -0.786235 0.804492 0.000000
v -0.811579 0.471772 0.000000
v -0.640578 0.225015 0.000000
v -0.091137 1.232622 -0.091137
v -0.388094 1.085388 -0.388094
v -0.555952 0.804492 -0.555952
v -0.573873 0.471772 -0.573873
v -0.452957 0.225015 -0.452957
v -0.000000 1.889505 -0.112923
v 0.079848 1.889505 -0.079848
v 0.112923 1.889505 0.000000
v 0.079848 1.889505 0.079848
v -0.000000 1.889505 0.112923
v -0.079848 1.889505 0.079848
v -0.112923 1.889505 0.000000
v -0.079848 1.889505 -0.079848
vn -0.0000 -1.0000 -0.0000
vn -0.1640 -0.9035 -0.3959
vn -0.3242 -0.5315 -0.7826
vn -0.3818 0.0681 -0.9217
vn -0.3032 0.6102 -0.7320
vn -0.1303 0.9403 -0.3145
vn -0.3959 -0.9035 -0.1640
vn -0.7826 -0.5315 -0.3242
vn -0.9217 0.0681 -0.3818
vn -0.7320 0.6102 -0.3032
vn -0.3145 0.9403 -0.1303
vn -0.3959 -0.9035 0.1640
vn -0.7826 -0.5315 0.3242
vn -0.9217 0.0681 0.3818
vn -0.7320 0.6102 0.3032
vn -0.3145 0.9403 0.1303
vn -0.1640 -0.9035 0.3959
vn -0.3242 -0.5315 0.7826
vn -0.3818 0.0681 0.9217
vn -0.3032 0.6102 0.7320
vn -0.1303 0.9403 0.3145
vn 0.1640 -0.9035 0.3959
vn 0.3242 -0.5315 0.7826
vn 0.3818 0.0681 0.9217
vn 0.3032 0.6102 0.7320
vn 0.1303 0.9403 0.3145
vn 0.3959 -0.9035 0.1640
vn 0.7826 -0.5315 0.3242
vn 0.9217 0.0681 0.3818
vn 0.7320 0.6102 0.3032
vn 0.3145 0.9403 0.1303
vn 0.3959 -0.9035 -0.1640
vn 0.7826 -0.5315 -0.3242
vn 0.9217 0.0681 -0.3818
vn 0.7320 0.6102 -0.3032
vn 0.3145 0.9403 -0.1303
vn 0.1640 -0.9035 -0.3959
vn 0.3242 -0.5315 -0.7826
vn 0.3818 0.0681 -0.9217
vn 0.3032 0.6102 -0.7320
vn 0.1303 0.9403 -0.3145
vn 0.9239 -0.0000 0.3827
vn -0.9239 -0.0000 0.3827
vn 0.9239 -0.0000 -0.3827
vn -0.3827 -0.0000 0.9239
vn 0.3827 -0.0000 -0.9239
vn -0.3827 -0.0000 -0.9239
vn 0.3827 -0.0000 0.9239
vn -0.9239 -0.0000 -0.3827
vn -0.8826 0.2957 -0.3656
vn 0.8826 0.2957 -0.3656
vn 0.3656 0.2957 0.8826
vn -0.8826 0.2957 0.3656
vn -0.3656 0.2957 -0.8826
vn 0.3656 0.2957 -0.8826
vn 0.8826 0.2957 0.3656
vn -0.3656 0.2957 0.8826
vn -0.3656 -0.2957 0.8826
vn -0.2873 -0.6605 0.6937
vn -0.2873 0.6605 0.6937
vn 0.8826 -0.2957 0.3656
vn 0.6937 -0.6605 0.2873
vn 0.6937 0.6605 0.2873
vn 0.3656 -0.2957 -0.8826
vn 0.2873 -0.6605 -0.6937
vn 0.2873 0.6605 -0.6937
vn -0.3656 -0.2957 -0.8826
vn -0.2873 -0.6605 -0.6937
vn -0.2873 0.6605 -0.6937
vn -0.8826 -0.2957 0.3656
vn -0.6937 -0.6605 0.2873
vn -0.6937 0.6605 0.2873
vn 0.3656 -0.2957 0.8826
vn 0.2873 -0.6605 0.6937
vn 0.2873 0.6605 0.6937
vn 0.8826 -0.2957 -0.3656
vn 0.6937 -0.6605 -0.2873
vn 0.6937 0.6605 -0.2873
vn -0.8826 -0.2957 -0.3656
vn -0.6937 -0.6605 -0.2873
vn -0.6937 0.6605 -0.2873
vn -0.0000 1.0000 -0.0000
vn 0.1600 0.9084 0.3863
vn 0.3223 0.5392 0.7781
vn 0.3817 -0.0702 0.9216
vn 0.3016 -0.6154 0.7282
vn 0.1358 -0.9349 0.3278
vn 0.3863 0.9084 0.1600
vn 0.7781 0.5392 0.3223
vn 0.9216 -0.0702 0.3817
vn 0.7282 -0.6154 0.3016
vn 0.3278 -0.9349 0.1358
vn 0.3863 0.9084 -0.1600
vn 0.7781 0.5392 -0.3223
vn 0.9216 -0.0702 -0.3817
vn 0.7282 -0.6154 -0.3016
vn 0.3278 -0.9349 -0.1358
vn 0.1600 0.9084 -0.3863
vn 0.3223 0.5392 -0.7781
vn 0.3817 -0.0702 -0.9216
vn 0.3016 -0.6154 -0.7282
vn 0.1358 -0.9349 -0.3278
vn -0.1600 0.9084 -0.3863
vn -0.3223 0.5392 -0.7781
vn -0.3817 -0.0702 -0.9216
vn -0.3016 -0.6154 -0.7282
vn -0.1358 -0.9349 -0.3278
vn -0.3863 0.9084 -0.1600
vn -0.7781 0.5392 -0.3223
vn -0.9216 -0.0702 -0.3817
vn -0.7282 -0.6154 -0.3016
vn -0.3278 -0.9349 -0.1358
vn -0.3863 0.9084 0.1600
vn -0.7781 0.5392 0.3223
vn -0.9216 -0.0702 0.3817
vn -0.7282 -0.6154 0.3016
vn -0.3278 -0.9349 0.1358
vn -0.1600 0.9084 0.3863
vn -0.3223 0.5392 0.7781
vn -0.3817 -0.0702 0.9216
vn -0.3016 -0.6154 0.7282
vn -0.1358 -0.9349 0.3278
vn 0.1305 0.9401 0.3150
vn 0.3150 0.9401 0.1305
vn 0.3150 0.9401 -0.1305
vn 0.1305 0.9401 -0.3150
vn -0.1305 0.9401 -0.3150
vn -0.3150 0.9401 -0.1305
vn -0.3150 0.9401 0.1305
vn -0.1305 0.9401 0.3150
vn -0.3826 -0.0224 -0.9236
vn 0.3826 -0.0224 -0.9236
vn 0.9236 -0.0224 -0.3826
vn 0.9236 -0.0224 0.3826
vn 0.3826 -0.0224 0.9236
vn -0.3826 -0.0224 0.9236
vn -0.9236 -0.0224 0.3826
vn -0.9236 -0.0224 -0.3826
vt 0.750000 0.490000
vt 0.919706 0.419706
vt 0.990000 0.250000
vt 0.919706 0.080294
vt 0.750000 0.010000
vt 0.580294 0.080294
vt 0.510000 0.250000
vt 0.580294 0.419706
vt 0.125000 0.500000
vt 0.125000 0.550000
vt 0.000000 0.550000
vt 0.000000 0.500000
vt 0.125000 0.600000
vt 0.000000 0.600000
vt 0.125000 0.650000
vt 0.000000 0.650000
vt 0.125000 0.700000
vt 0.000000 0.700000
vt 0.125000 0.750000
vt 0.000000 0.750000
vt 0.250000 0.500000
vt 0.250000 0.550000
vt 0.250000 0.600000
vt 0.250000 0.650000
vt 0.250000 0.700000
vt 0.250000 0.750000
vt 0.375000 0.500000
vt 0.375000 0.550000
vt 0.375000 0.600000
vt 0.375000 0.650000
vt 0.375000 0.700000
vt 0.375000 0.750000
vt 0.500000 0.500000
vt 0.500000 0.550000
vt 0.500000 0.600000
vt 0.500000 0.650000
vt 0.500000 0.700000
vt 0.500000 0.750000
vt 0.625000 0.500000
vt 0.625000 0.550000
vt 0.625000 0.600000
vt 0.625000 0.650000
vt 0.625000 0.700000
vt 0.625000 0.750000
vt 0.750000 0.500000
vt 0.750000 0.550000
vt 0.750000 0.600000
vt 0.750000 0.650000
vt 0.750000 0.700000
vt 0.750000 0.750000
vt 0.875000 0.500000
vt 0.875000 0.550000
vt 0.875000 0.600000
vt 0.875000 0.650000
vt 0.875000 0.700000
vt 0.875000 0.750000
vt 1.000000 0.500000
vt 1.000000 0.550000
vt 1.000000 0.600000
vt 1.000000 0.650000
vt 1.000000 0.700000
vt 1.000000 0.750000
vt 1.000000 0.750000
vt 0.000000 0.750000
s 0
usemtl glass
f 1/1/1 2/2/1 3/3/1 4/4/1 5/5/1 6/6/1 7/7/1 8/8/1
f 8/9/2 48/10/2 9/11/2 1/12/2
f 48/10/3 47/13/3 10/14/3 9/11/3
f 47/13/4 46/15/4 11/16/4 10/14/4
f 46/15/5 45/17/5 12/18/5 11/16/5
f 45/17/6 44/19/6 13/20/6 12/18/6
f 7/21/7 43/22/7 48/10/7 8/9/7
f 43/22/8 42/23/8 47/13/8 48/10/8
f 42/23/9 41/24/9 46/15/9 47/13/9
f 41/24/10 40/25/10 45/17/10 46/15/10
f 40/25/11 39/26/11 44/19/11 45/17/11
f 6/27/12 38/28/12 43/22/12 7/21/12
f 38/28/13 37/29/13 42/23/13 43/22/13
f 37/29/14 36/30/14 41/24/14 42/23/14
f 36/30/15 35/31/15 40/25/15 41/24/15
f 35/31/16 34/32/16 39/26/16 40/25/16
f 5/33/17 33/34/17 38/28/17 6/27/17
f 33/34/18 32/35/18 37/29/18 38/28/18
f 32/35/19 31/36/19 36/30/19 37/29/19
f 31/36/20 30/37/20 35/31/20 36/30/20
f 30/37/21 29/38/21 34/32/21 35/31/21
f 4/39/22 28/40/22 33/34/22 5/33/22
f 28/40/23 27/41/23 32/35/23 33/34/23
f 27/41/24 26/42/24 31/36/24 32/35/24
f 26/42/25 25/43/25 30/37/25 31/36/25
f 25/43/26 24/44/26 29/38/26 30/37/26
f 3/45/27 23/46/27 28/40/27 4/39/27
f 23/46/28 22/47/28 27/41/28 28/40/28
f 22/47/29 21/48/29 26/42/29 27/41/29
f 21/48/30 20/49/30 25/43/30 26/42/30
f 20/49/31 19/50/31 24/44/31 25/43/31
f 2/51/32 18/52/32 23/46/32 3/45/32
f 18/52/33 17/53/33 22/47/33 23/46/33
f 17/53/34 16/54/34 21/48/34 22/47/34
f 16/54/35 15/55/35 20/49/35 21/48/35
f 15/55/36 14/56/36 19/50/36 20/49/36
f 1/57/37 9/58/37 18/52/37 2/51/37
f 9/58/38 10/59/38 17/53/38 18/52/38
f 10/59/39 11/60/39 16/54/39 17/53/39
f 11/60/40 12/61/40 15/55/40 16/54/40
f 12/61/41 13/62/41 14/56/41 15/55/41
f 24/44/42 19/50/42 51/50/42 52/44/42
f 39/26/43 34/32/43 54/32/43 55/26/43
f 19/50/44 14/56/44 50/56/44 51/50/44
f 34/32/45 29/38/45 53/38/45 54/32/45
f 14/56/46 13/62/46 49/62/46 50/56/46
f 13/20/47 44/19/47 56/19/47 49/20/47
f 29/38/48 24/44/48 52/44/48 53/38/48
f 44/19/49 39/26/49 55/26/49 56/19/49
f 68/19/50 67/26/50 63/26/50 64/19/50
f 74/50/51 73/56/51 58/56/51 59/50/51
f 80/38/52 79/44/52 60/44/52 61/38/52
f 67/26/53 85/32/53 62/32/53 63/26/53
f 86/20/54 68/19/54 64/19/54 57/20/54
f 73/56/55 86/62/55 57/62/55 58/56/55
f 79/44/56 74/50/56 59/50/56 60/44/56
f 85/32/57 80/38/57 61/38/57 62/32/57
f 54/32/58 53/38/58 82/38/58 83/32/58
f 83/32/59 82/38/59 81/38/59 84/32/59
f 84/32/60 81/38/60 80/38/60 85/32/60
f 52/44/61 51/50/61 76/50/61 77/44/61
f 77/44/62 76/50/62 75/50/62 78/44/62
f 78/44/63 75/50/63 74/50/63 79/44/63
f 50/56/64 49/62/64 88/63/64 71/56/64
f 71/56/65 88/63/65 87/63/65 72/56/65
f 72/56/66 87/63/66 86/62/66 73/56/66
f 49/20/67 56/19/67 70/19/67 88/64/67
f 88/64/68 70/19/68 69/19/68 87/64/68
f 87/64/69 69/19/69 68/19/69 86/20/69
f 55/26/70 54/32/70 83/32/70 65/26/70
f 65/26/71 83/32/71 84/32/71 66/26/71
f 66/26/72 84/32/72 85/32/72 67/26/72
f 53/38/73 52/44/73 77/44/73 82/38/73
f 82/38/74 77/44/74 78/44/74 81/38/74
f 81/38/75 78/44/75 79/44/75 80/38/75
f 51/50/76 50/56/76 71/56/76 76/50/76
f 76/50/77 71/56/77 72/56/77 75/50/77
f 75/50/78 72/56/78 73/56/78 74/50/78
f 56/19/79 55/26/79 65/26/79 70/19/79
f 70/19/80 65/26/80 66/26/80 69/19/80
f 69/19/81 66/26/81 67/26/81 68/19/81
f 89/1/82 96/8/82 95/7/82 94/6/82 93/5/82 92/4/82 91/3/82 90/2/82
f 96/9/83 89/12/83 97/11/83 136/10/83
f 136/10/84 97/11/84 98/14/84 135/13/84
f 135/13/85 98/14/85 99/16/85 134/15/85
f 134/15/86 99/16/86 100/18/86 133/17/86
f 133/17/87 100/18/87 101/20/87 132/19/87
f 95/21/88 96/9/88 136/10/88 131/22/88
f 131/22/89 136/10/89 135/13/89 130/23/89
f 130/23/90 135/13/90 134/15/90 129/24/90
f 129/24/91 134/15/91 133/17/91 128/25/91
f 128/25/92 133/17/92 132/19/92 127/26/92
f 94/27/93 95/21/93 131/22/93 126/28/93
f 126/28/94 131/22/94 130/23/94 125/29/94
f 125/29/95 130/23/95 129/24/95 124/30/95
f 124/30/96 129/24/96 128/25/96 123/31/96
f 123/31/97 128/25/97 127/26/97 122/32/97
f 93/33/98 94/27/98 126/28/98 121/34/98
f 121/34/99 126/28/99 125/29/99 120/35/99
f 120/35/100 125/29/100 124/30/100 119/36/100
f 119/36/101 124/30/101 123/31/101 118/37/101
f 118/37/102 123/31/102 122/32/102 117/38/102
f 92/39/103 93/33/103 121/34/103 116/40/103
f 116/40/104 121/34/104 120/35/104 115/41/104
f 115/41/105 120/35/105 119/36/105 114/42/105
f 114/42/106 119/36/106 118/37/106 113/43/106
f 113/43/107 118/37/107 117/38/107 112/44/107
f 91/45/108 92/39/108 116/40/108 111/46/108
f 111/46/109 116/40/109 115/41/109 110/47/109
f 110/47/110 115/41/110 114/42/110 109/48/110
f 109/48/111 114/42/111 113/43/111 108/49/111
f 108/49/112 113/43/112 112/44/112 107/50/112
f 90/51/113 91/45/113 111/46/113 106/52/113
f 106/52/114 111/46/114 110/47/114 105/53/114
f 105/53/115 110/47/115 109/48/115 104/54/115
f 104/54/116 109/48/116 108/49/116 103/55/116
f 103/55/117 108/49/117 107/50/117 102/56/117
f 89/57/118 90/51/118 106/52/118 97/58/118
f 97/58/119 106/52/119 105/53/119 98/59/119
f 98/59/120 105/53/120 104/54/120 99/60/120
f 99/60/121 104/54/121 103/55/121 100/61/121
f 100/61/122 103/55/122 102/56/122 101/62/122
f 57/20/123 64/19/123 144/19/123 137/20/123
f 64/19/124 63/26/124 143/26/124 144/19/124
f 63/26/125 62/32/125 142/32/125 143/26/125
f 62/32/126 61/38/126 141/38/126 142/32/126
f 61/38/127 60/44/127 140/44/127 141/38/127
f 60/44/128 59/50/128 139/50/128 140/44/128
f 59/50/129 58/56/129 138/56/129 139/50/129
f 58/56/130 57/62/130 137/62/130 138/56/130
f 117/38/131 141/38/131 140/44/131 112/44/131
f 122/32/132 142/32/132 141/38/132 117/38/132
f 127/26/133 143/26/133 142/32/133 122/32/133
f 132/19/134 144/19/134 143/26/134 127/26/134
f 101/20/135 137/20/135 144/19/135 132/19/135
f 102/56/136 138/56/136 137/62/136 101/20/136
f 107/50/137 139/50/137 138/56/137 102/56/137
f 112/44/138 140/44/138 139/50/138 107/50/138
o liquid
v -0.000000 0.098504 -0.360894
v 0.255191 0.098504 -0.255191
v 0.360894 0.098504 0.000000
v 0.255191 0.098504 0.255191
v 0.000000 0.098504 0.360894
v -0.255191 0.098504 0.255191
v -0.360894 0.098504 0.000000
v -0.255191 0.098504 -0.255191
v -0.000000 0.220185 -0.646984
v 0.000000 0.469409 -0.819694
v -0.000000 0.805457 -0.794097
v 0.561511 0.805457 -0.561511
v 0.579611 0.469409 -0.579611
v 0.457487 0.220185 -0.457487
v 0.794097 0.805457 -0.000000
v 0.819694 0.469409 -0.000000
v 0.646984 0.220185 0.000000
v 0.561511 0.805457 0.561511
v 0.579611 0.469409 0.579611
v 0.457487 0.220185 0.457487
v -0.000000 0.805457 0.794097
v -0.000000 0.469409 0.819694
v 0.000000 0.220185 0.646984
v -0.561511 0.805457 0.561511
v -0.579611 0.469409 0.579611
v -0.457487 0.220185 0.457487
v -0.794097 0.805457 0.000000
v -0.819694 0.469409 0.000000
v -0.646984 0.220185 0.000000
v -0.561511 0.805457 -0.561511
v -0.579611 0.469409 -0.579611
v -0.457487 0.220185 -0.457487
vn -0.0000 -1.0000 -0.0000
vn -0.1600 -0.9084 -0.3863
vn -0.3223 -0.5392 -0.7781
vn -0.3817 0.0702 -0.9216
vn -0.3863 -0.9084 -0.1600
vn -0.7781 -0.5392 -0.3223
vn -0.9216 0.0702 -0.3817
vn -0.3863 -0.9084 0.1600
vn -0.7781 -0.5392 0.3223
vn -0.9216 0.0702 0.3817
vn -0.1600 -0.9084 0.3863
vn -0.3223 -0.5392 0.7781
vn -0.3817 0.0702 0.9216
vn 0.1600 -0.9084 0.3863
vn 0.3223 -0.5392 0.7781
vn 0.3817 0.0702 0.9216
vn 0.3863 -0.9084 0.1600
vn 0.7781 -0.5392 0.3223
vn 0.9216 0.0702 0.3817
vn 0.3863 -0.9084 -0.1600
vn 0.7781 -0.5392 -0.3223
vn 0.9216 0.0702 -0.3817
vn 0.1600 -0.9084 -0.3863
vn 0.3223 -0.5392 -0.7781
vn 0.3817 0.0702 -0.9216
vn -0.0000 1.0000 -0.0000
vt 0.750000 0.490000
vt 0.919706 0.419706
vt 0.990000 0.250000
vt 0.919706 0.080294
vt 0.750000 0.010000
vt 0.580294 0.080294
vt 0.510000 0.250000
vt 0.580294 0.419706
vt 0.125000 0.500000
vt 0.125000 0.550000
vt 0.000000 0.550000
vt 0.000000 0.500000
vt 0.125000 0.600000
vt 0.000000 0.600000
vt 0.125000 0.650000
vt 0.000000 0.650000
vt 0.250000 0.500000
vt 0.250000 0.550000
vt 0.250000 0.600000
vt 0.250000 0.650000
vt 0.375000 0.500000
vt 0.375000 0.550000
vt 0.375000 0.600000
vt 0.375000 0.650000
vt 0.500000 0.500000
vt 0.500000 0.550000
vt 0.500000 0.600000
vt 0.500000 0.650000
vt 0.625000 0.500000
vt 0.625000 0.550000
vt 0.625000 0.600000
vt 0.625000 0.650000
vt 0.750000 0.500000
vt 0.750000 0.550000
vt 0.750000 0.600000
vt 0.750000 0.650000
vt 0.875000 0.500000
vt 0.875000 0.550000
vt 0.875000 0.600000
vt 0.875000 0.650000
vt 1.000000 0.500000
vt 1.000000 0.550000
vt 1.000000 0.600000
vt 1.000000 0.650000
s 0
usemtl liquid
f 145/65/139 146/66/139 147/67/139 148/68/139 149/69/139 150/70/139 151/71/139 152/72/139
f 152/73/140 176/74/140 153/75/140 145/76/140
f 176/74/141 175/77/141 154/78/141 153/75/141
f 175/77/142 174/79/142 155/80/142 154/78/142
f 151/81/143 173/82/143 176/74/143 152/73/143
f 173/82/144 172/83/144 175/77/144 176/74/144
f 172/83/145 171/84/145 174/79/145 175/77/145
f 150/85/146 170/86/146 173/82/146 151/81/146
f 170/86/147 169/87/147 172/83/147 173/82/147
f 169/87/148 168/88/148 171/84/148 172/83/148
f 149/89/149 167/90/149 170/86/149 150/85/149
f 167/90/150 166/91/150 169/87/150 170/86/150
f 166/91/151 165/92/151 168/88/151 169/87/151
f 148/93/152 164/94/152 167/90/152 149/89/152
f 164/94/153 163/95/153 166/91/153 167/90/153
f 163/95/154 162/96/154 165/92/154 166/91/154
f 147/97/155 161/98/155 164/94/155 148/93/155
f 161/98/156 160/99/156 163/95/156 164/94/156
f 160/99/157 159/100/157 162/96/157 163/95/157
f 146/101/158 158/102/158 161/98/158 147/97/158
f 158/102/159 157/103/159 160/99/159 161/98/159
f 157/103/160 156/104/160 159/100/160 160/99/160
f 145/105/161 153/106/161 158/102/161 146/101/161
f 153/106/162 154/107/162 157/103/162 158/102/162
f 154/107/163 155/108/163 156/104/163 157/103/163
f 174/79/164 171/84/164 168/88/164 165/92/164 162/96/164 159/100/164 156/104/164 155/108/164
o cap
v 0.000000 1.781285 -0.120000
v 0.000000 2.021285 -0.137266
v 0.084853 1.781285 -0.084853
v 0.097062 2.021285 -0.097062
v 0.120000 1.781285 0.000000
v 0.137266 2.021285 0.000000
v 0.084853 1.781285 0.084853
v 0.097062 2.021285 0.097062
v 0.000000 1.781285 0.120000
v 0.000000 2.021285 0.137266
v -0.084853 1.781285 0.084853
v -0.097062 2.021285 0.097062
v -0.120000 1.781285 0.000000
v -0.137266 2.021285 0.000000
v -0.084853 1.781285 -0.084853
v -0.097062 2.021285 -0.097062
vn 0.3818 -0.0663 -0.9218
vn 0.9218 -0.0663 -0.3818
vn 0.9218 -0.0663 0.3818
vn 0.3818 -0.0663 0.9218
vn -0.3818 -0.0663 0.9218
vn -0.9218 -0.0663 0.3818
vn -0.0000 1.0000 -0.0000
vn -0.9218 -0.0663 -0.3818
vn -0.3818 -0.0663 -0.9218
vn -0.0000 -1.0000 -0.0000
vt 1.000000 0.500000
vt 1.000000 1.000000
vt 0.875000 1.000000
vt 0.875000 0.500000
vt 0.750000 1.000000
vt 0.750000 0.500000
vt 0.625000 1.000000
vt 0.625000 0.500000
vt 0.500000 1.000000
vt 0.500000 0.500000
vt 0.375000 1.000000
vt 0.375000 0.500000
vt 0.250000 1.000000
vt 0.250000 0.500000
vt 0.419706 0.419706
vt 0.250000 0.490000
vt 0.080294 0.419706
vt 0.010000 0.250000
vt 0.080294 0.080294
vt 0.250000 0.010000
vt 0.419706 0.080294
vt 0.490000 0.250000
vt 0.125000 1.000000
vt 0.125000 0.500000
vt 0.000000 1.000000
vt 0.000000 0.500000
vt 0.750000 0.490000
vt 0.919706 0.419706
vt 0.990000 0.250000
vt 0.919706 0.080294
vt 0.750000 0.010000
vt 0.580294 0.080294
vt 0.510000 0.250000
vt 0.580294 0.419706
s 0
usemtl cap
f 177/109/165 178/110/165 180/111/165 179/112/165
f 179/112/166 180/111/166 182/113/166 181/114/166
f 181/114/167 182/113/167 184/115/167 183/116/167
f 183/116/168 184/115/168 186/117/168 185/118/168
f 185/118/169 186/117/169 188/119/169 187/120/169
f 187/120/170 188/119/170 190/121/170 189/122/170
f 180/123/171 178/124/171 192/125/171 190/126/171 188/127/171 186/128/171 184/129/171 182/130/171
f 189/122/172 190/121/172 192/131/172 191/132/172
f 191/132/173 192/131/173 178/133/173 177/134/173
f 177/135/174 179/136/174 181/137/174 183/138/174 185/139/174 187/140/174 189/141/174 191/142/174
