# Blender 4.0.2
# www.blender.org
mtllib flor.mtl
o flor
v 1.000000 0.500000 -1.000000
v 1.000000 0.000000 -1.000000
v 1.000000 0.500000 1.000000
v 1.000000 0.000000 1.000000
v -1.000000 0.500000 -1.000000
v -1.000000 0.000000 -1.000000
v -1.000000 0.500000 1.000000
v -1.000000 0.000000 1.000000
vn -0.0000 1.0000 -0.0000
vn -0.0000 -0.0000 1.0000
vn -1.0000 -0.0000 -0.0000
vn -0.0000 -1.0000 -0.0000
vn 1.0000 -0.0000 -0.0000
vn -0.0000 -0.0000 -1.0000
vt 1.000000 1.000000
vt 0.000000 1.000000
vt 0.000000 0.000000
vt 1.000000 -0.000000
vt 0.000000 0.250000
vt 0.000000 0.000000
vt 1.000000 0.000000
vt 1.000000 0.250000
vt 1.000000 1.000000
vt 0.000000 1.000000
s 0
usemtl flor
f 1/1/1 5/2/1 7/3/1 3/4/1
f 4/5/2 3/6/2 7/7/2 8/8/2
f 8/7/3 7/8/3 5/5/3 6/3/3
f 6/7/4 2/9/4 4/10/4 8/3/4
f 2/5/5 1/3/5 3/7/5 4/8/5
f 6/5/6 5/3/6 1/7/6 2/8/6
