# Blender 4.1.1
# www.blender.org
mtllib HitMarkerCorner.mtl
o HitMarkerCorner
v 1.000000 0.000000 1.000000
v 0.919239 0.080761 0.000000
v 0.901576 0.080761 0.179335
v 0.998631 0.277759 0.413646
v 0.849266 0.080761 0.351777
v 0.998631 0.502512 0.667264
v 0.898744 0.277759 0.600522
v 0.764319 0.080761 0.510702
v 0.919238 1.000000 0.919239
v 0.901576 0.746383 0.901576
v 0.849266 0.502512 0.849266
v 0.764319 0.277759 0.764319
v 0.650000 0.080761 0.650000
v 1.000000 0.746383 1.000000
v 0.600521 0.277759 0.898744
v 0.510701 0.080761 0.764319
v 0.493983 0.000000 1.000000
v 0.351777 0.080761 0.849266
v 0.179334 0.080761 0.901575
v -0.000000 0.080761 0.919238
v 0.360545 0.000000 1.000000
v 0.179129 0.000000 1.000000
v 0.667264 0.502512 0.998631
v 0.820830 1.000000 1.000000
v 0.781646 0.746383 1.000000
v -0.000000 0.179170 1.000000
v 0.998631 0.390135 0.540455
v 0.413646 0.277759 0.998631
v 0.198912 0.203041 1.000000
v 0.682496 0.000000 0.456029
v 0.820831 0.000000 0.000000
v 0.805059 0.000000 0.160136
v 0.758349 0.000000 0.314118
v 0.314118 0.000000 0.758349
v 0.160136 0.000000 0.805058
v 0.580415 0.000000 0.580415
v 0.456029 0.000000 0.682496
v -0.000000 0.000000 0.820830
v 1.000000 1.000000 0.820830
v 1.000000 0.746383 0.781646
v 0.948687 0.390135 0.633893
v 0.806792 0.390135 0.806792
v 1.000000 0.179169 0.000000
v 0.540455 0.390135 0.998631
v 1.000000 0.203041 0.198912
v 0.633892 0.390135 0.948687
v 0.000000 0.000000 1.000000
v 1.000000 0.000000 0.000000
v 1.000000 1.000000 1.000000
v 1.000000 0.502512 1.000000
v 1.000000 0.390135 1.000000
v 1.000000 0.000000 0.179130
v 1.000000 0.000000 0.360545
v 1.000000 0.000000 0.493983
v 0.919239 2.000000 0.919239
v 1.000001 2.000000 0.820831
v 0.820831 2.000000 1.000001
v 1.000001 2.000000 1.000001
vn -0.0000 -0.0000 1.0000
vn -0.7708 0.6326 -0.0759
vn -0.6332 0.7715 -0.0624
vn -0.5601 0.4696 -0.6825
vn -0.7412 0.6326 -0.2248
vn -0.6088 0.7715 -0.1847
vn -0.0000 -1.0000 -0.0000
vn -0.7786 0.4696 -0.4162
vn -0.6831 0.6326 -0.3651
vn -0.5611 0.7715 -0.2999
vn -0.7693 0.0975 -0.6314
vn -0.7400 0.2890 -0.6073
vn -0.6825 0.4696 -0.5601
vn -0.5987 0.6326 -0.4913
vn -0.4918 0.7715 -0.4036
vn -0.4913 0.6326 -0.5987
vn -0.4036 0.7715 -0.4918
vn -0.6314 0.0975 -0.7693
vn -0.6073 0.2890 -0.7400
vn 1.0000 -0.0000 -0.0000
vn -0.4162 0.4696 -0.7786
vn -0.3651 0.6326 -0.6831
vn -0.2999 0.7715 -0.5611
vn -0.2248 0.6326 -0.7412
vn -0.1847 0.7715 -0.6088
vn 0.0030 0.0024 1.0000
vn -0.0759 0.6326 -0.7708
vn -0.0624 0.7715 -0.6332
vn -1.0000 -0.0000 -0.0000
vn -0.0019 0.0044 1.0000
vn -0.0014 0.0018 1.0000
vn -0.0025 -0.0022 1.0000
vn 1.0000 -0.0022 -0.0025
vn -0.0035 0.0020 1.0000
vn 1.0000 0.0019 -0.0035
vn 1.0000 0.0024 0.0030
vn 1.0000 0.0044 -0.0019
vn 1.0000 0.0018 -0.0014
vn -0.0000 1.0000 -0.0000
vn -0.6344 -0.0000 -0.7730
vn -0.7730 -0.0000 -0.6344
vn -0.0000 -0.0000 -1.0000
vt 0.355603 0.437500
vt 0.468298 0.750000
vt 0.500000 0.750000
vt 0.359389 0.500000
vt 0.500000 0.250000
vt 0.468750 0.250000
vt 0.468750 0.288795
vt 0.500000 0.281221
vt 0.468750 0.218779
vt 0.500000 0.218779
vt 0.375000 0.343750
vt 0.343750 0.343750
vt 0.343750 0.375000
vt 0.375000 0.375000
vt 0.437500 0.250000
vt 0.437500 0.312500
vt 0.437500 0.218779
vt 0.375000 0.750000
vt 0.311748 0.750000
vt 0.307004 0.710312
vt 0.322552 0.697552
vt 0.406250 0.312500
vt 0.406250 0.343750
vt 0.421875 0.343750
vt 0.406250 0.250000
vt 0.406250 0.218779
vt 0.394397 0.437500
vt 0.375000 0.437500
vt 0.375000 0.500000
vt 0.390611 0.500000
vt 0.406250 0.375000
vt 0.375000 0.312500
vt 0.375000 0.250000
vt 0.375000 0.218779
vt 0.343750 0.312500
vt 0.343750 0.250000
vt 0.343750 0.218779
vt 0.343750 0.375000
vt 0.375000 0.625000
vt 0.397396 0.625000
vt 0.375000 0.647391
vt 0.328125 0.343750
vt 0.312500 0.250000
vt 0.312500 0.312500
vt 0.312500 0.218779
vt 0.281250 0.250000
vt 0.281250 0.288795
vt 0.281250 0.218779
vt 0.272391 0.750000
vt 0.295068 0.750000
vt 0.250000 0.250000
vt 0.250000 0.281221
vt 0.250000 0.218779
vt 0.250000 0.727604
vt 0.250000 0.750000
vt 0.397396 0.875000
vt 0.270017 0.725632
vt 0.289265 0.719794
vt 0.423767 0.750000
vt 0.437814 0.750000
vt 0.350632 0.645017
vt 0.352604 0.625000
vt 0.375000 0.670068
vt 0.344794 0.664265
vt 0.375000 0.686748
vt 0.335312 0.682004
vt 0.500000 0.727604
vt 0.500000 0.772396
s 0
usemtl Material
f 25/1/1 14/2/1 49/3/1 24/4/1
f 2/5/2 3/6/2 45/7/2 43/8/2
f 32/9/3 3/6/3 2/5/3 31/10/3
f 42/11/4 46/12/4 23/13/4 11/14/4
f 3/6/5 5/15/5 4/16/5 45/7/5
f 33/17/6 5/15/6 3/6/6 32/9/6
f 1/18/7 17/19/7 37/20/7 36/21/7
f 4/16/8 7/22/8 41/23/8 27/24/8
f 5/15/9 8/25/9 7/22/9 4/16/9
f 30/26/10 8/25/10 5/15/10 33/17/10
f 40/27/11 10/28/11 9/29/11 39/30/11
f 6/31/12 11/14/12 10/28/12 40/27/12
f 7/22/13 12/32/13 42/11/13 41/23/13
f 8/25/14 13/33/14 12/32/14 7/22/14
f 36/34/15 13/33/15 8/25/15 30/26/15
f 12/32/4 15/35/4 46/12/4 42/11/4
f 13/33/16 16/36/16 15/35/16 12/32/16
f 16/36/17 13/33/17 36/34/17 37/37/17
f 9/29/18 10/28/18 25/1/18 24/4/18
f 10/28/19 11/14/19 23/38/19 25/1/19
f 48/39/20 43/40/20 45/7/20 52/41/20
f 23/13/21 46/12/21 44/42/21
f 16/36/22 18/43/22 28/44/22 15/35/22
f 18/43/23 16/36/23 37/37/23 34/45/23
f 28/44/24 18/43/24 19/46/24 29/47/24
f 19/46/25 18/43/25 34/45/25 35/48/25
f 28/44/26 29/47/26 22/49/26 21/50/26
f 19/46/27 20/51/27 26/52/27 29/47/27
f 38/53/28 20/51/28 19/46/28 35/48/28
f 38/54/29 47/55/29 26/56/29 20/51/29
f 49/3/20 39/30/20 56/30/20 58/3/20
f 27/24/8 41/23/8 6/31/8
f 44/42/21 46/12/21 15/35/21 28/44/21
f 41/23/13 42/11/13 11/14/13 6/31/13
f 22/49/1 29/47/1 26/56/1 47/55/1
f 35/57/7 22/49/7 47/55/7 38/54/7
f 21/50/30 17/19/30 44/42/30 28/44/30
f 34/58/7 21/50/7 22/49/7 35/57/7
f 44/42/31 17/19/31 1/18/31 51/59/31
f 37/20/7 17/19/7 21/50/7 34/58/7
f 14/2/20 40/27/20 39/30/20 49/3/20
f 23/13/32 50/60/32 14/2/32 25/1/32
f 50/60/33 6/31/33 40/27/33 14/2/33
f 51/59/34 50/60/34 23/13/34 44/42/34
f 51/59/35 27/24/35 6/31/35 50/60/35
f 52/41/7 32/61/7 31/62/7 48/39/7
f 52/41/36 45/7/36 4/16/36 53/63/36
f 53/63/7 33/64/7 32/61/7 52/41/7
f 53/63/37 4/16/37 27/24/37 54/65/37
f 54/65/7 30/66/7 33/64/7 53/63/7
f 54/65/38 27/24/38 51/59/38 1/18/38
f 36/21/7 30/66/7 54/65/7 1/18/7
f 56/67/39 55/29/39 57/68/39 58/3/39
f 9/29/40 24/4/40 57/4/40 55/29/40
f 24/4/1 49/3/1 58/3/1 57/4/1
f 39/30/41 9/29/41 55/29/41 56/30/41
f 31/62/42 2/5/42 43/40/42 48/39/42
